<?xml version="1.0" encoding="UTF-8" standalone="no"?>
<svg
   xmlns:dc="http://purl.org/dc/elements/1.1/"
   xmlns:cc="http://creativecommons.org/ns#"
   xmlns:rdf="http://www.w3.org/1999/02/22-rdf-syntax-ns#"
   xmlns:svg="http://www.w3.org/2000/svg"
   xmlns="http://www.w3.org/2000/svg"
   viewBox="0 0 65.684265 53.380798"
   height="53.380798"
   width="65.684265"
   xml:space="preserve"
   id="svg2"
   version="1.1"><metadata
     id="metadata8"><rdf:RDF><cc:Work
         rdf:about=""><dc:format>image/svg+xml</dc:format><dc:type
           rdf:resource="http://purl.org/dc/dcmitype/StillImage" /></cc:Work></rdf:RDF></metadata><defs
     id="defs6"><clipPath
       id="clipPath18"
       clipPathUnits="userSpaceOnUse"><path
         id="path16"
         d="M 0,40.036 H 49.263 V 0 H 0 Z" /></clipPath></defs><g
     transform="matrix(1.3333333,0,0,-1.3333333,0,53.3808)"
     id="g10"><g
       id="g12"><g
         clip-path="url(#clipPath18)"
         id="g14"><g
           transform="translate(49.2632,35.2969)"
           id="g20"><path
             id="path22"
             style="fill:#ffffff;fill-opacity:1;fill-rule:nonzero;stroke:none"
             d="m 0,0 c -1.812,-0.805 -3.76,-1.348 -5.805,-1.591 2.087,1.25 3.689,3.23 4.444,5.591 -1.953,-1.158 -4.115,-2 -6.418,-2.453 -1.843,1.964 -4.47,3.192 -7.377,3.192 -5.581,0 -10.107,-4.526 -10.107,-10.107 0,-0.792 0.09,-1.563 0.262,-2.303 -8.4,0.421 -15.848,4.444 -20.832,10.56 -0.87,-1.493 -1.369,-3.228 -1.369,-5.081 0,-3.507 1.785,-6.6 4.496,-8.413 -1.656,0.053 -3.215,0.507 -4.577,1.265 -10e-4,-0.042 -10e-4,-0.085 -10e-4,-0.128 0,-4.896 3.484,-8.981 8.108,-9.91 -0.848,-0.231 -1.741,-0.355 -2.663,-0.355 -0.652,0 -1.285,0.063 -1.902,0.182 1.286,-4.015 5.019,-6.938 9.441,-7.019 -3.459,-2.711 -7.817,-4.327 -12.553,-4.327 -0.815,0 -1.619,0.048 -2.41,0.141 4.473,-2.868 9.785,-4.541 15.493,-4.541 18.591,0 28.756,15.401 28.756,28.757 0,0.437 -0.009,0.874 -0.028,1.308 C -3.068,-3.808 -1.354,-2.027 0,0" /></g></g></g></g></svg>