<?xml version="1.0" encoding="UTF-8" standalone="no"?>
<svg
   xmlns:dc="http://purl.org/dc/elements/1.1/"
   xmlns:cc="http://creativecommons.org/ns#"
   xmlns:rdf="http://www.w3.org/1999/02/22-rdf-syntax-ns#"
   xmlns:svg="http://www.w3.org/2000/svg"
   xmlns="http://www.w3.org/2000/svg"
   viewBox="0 0 66.096397 66.359329"
   height="66.359329"
   width="66.096397"
   xml:space="preserve"
   id="svg2"
   version="1.1"><metadata
     id="metadata8"><rdf:RDF><cc:Work
         rdf:about=""><dc:format>image/svg+xml</dc:format><dc:type
           rdf:resource="http://purl.org/dc/dcmitype/StillImage" /></cc:Work></rdf:RDF></metadata><defs
     id="defs6"><clipPath
       id="clipPath18"
       clipPathUnits="userSpaceOnUse"><path
         id="path16"
         d="M 0,49.77 H 49.572 V 0 H 0 Z" /></clipPath></defs><g
     transform="matrix(1.3333333,0,0,-1.3333333,0,66.359333)"
     id="g10"><g
       id="g12"><g
         clip-path="url(#clipPath18)"
         id="g14"><g
           transform="translate(13.2139,6.6641)"
           id="g20"><path
             id="path22"
             style="fill:#ffffff;fill-opacity:1;fill-rule:nonzero;stroke:none"
             d="m 0,0 c 0,-3.648 -2.959,-6.607 -6.607,-6.607 -3.649,0 -6.607,2.959 -6.607,6.607 0,3.65 2.958,6.607 6.607,6.607 C -2.959,6.607 0,3.65 0,0 m -13.191,33.566 c 22.061,0 40.01,-18.046 40.01,-40.23 h 9.539 c 0,27.445 -22.228,49.769 -49.549,49.769 z m -0.015,-16.91 c 6.19,0 12.009,-2.418 16.382,-6.816 C 7.557,5.441 9.97,-0.416 9.97,-6.652 h 9.538 c 0,18.113 -14.676,32.847 -32.714,32.847 z" /></g></g></g></g></svg>