<?xml version="1.0" encoding="UTF-8" standalone="no"?>
<svg
   xmlns:dc="http://purl.org/dc/elements/1.1/"
   xmlns:cc="http://creativecommons.org/ns#"
   xmlns:rdf="http://www.w3.org/1999/02/22-rdf-syntax-ns#"
   xmlns:svg="http://www.w3.org/2000/svg"
   xmlns="http://www.w3.org/2000/svg"
   viewBox="0 0 46.431999 44.382133"
   height="44.382133"
   width="46.431999"
   xml:space="preserve"
   id="svg2"
   version="1.1"><metadata
     id="metadata8"><rdf:RDF><cc:Work
         rdf:about=""><dc:format>image/svg+xml</dc:format><dc:type
           rdf:resource="http://purl.org/dc/dcmitype/StillImage" /></cc:Work></rdf:RDF></metadata><defs
     id="defs6"><clipPath
       id="clipPath18"
       clipPathUnits="userSpaceOnUse"><path
         id="path16"
         d="M 0,33.287 H 34.824 V 0 H 0 Z" /></clipPath></defs><g
     transform="matrix(1.3333333,0,0,-1.3333333,0,44.382132)"
     id="g10"><g
       id="g12"><g
         clip-path="url(#clipPath18)"
         id="g14"><g
           transform="translate(4.2227,33.2866)"
           id="g20"><path
             id="path22"
             style="fill:#ffffff;fill-opacity:1;fill-rule:nonzero;stroke:none"
             d="m 0,0 c -2.552,0 -4.223,-1.677 -4.223,-3.88 0,-2.155 1.62,-3.88 4.124,-3.88 h 0.05 c 2.603,0 4.224,1.725 4.224,3.88 C 4.125,-1.677 2.554,0 0,0" /></g><path
           id="path24"
           style="fill:#ffffff;fill-opacity:1;fill-rule:nonzero;stroke:none"
           d="M 0.44,0 H 7.905 V 22.459 H 0.44 Z" /><g
           transform="translate(26.2314,22.9888)"
           id="g26"><path
             id="path28"
             style="fill:#ffffff;fill-opacity:1;fill-rule:nonzero;stroke:none"
             d="m 0,0 c -3.963,0 -5.737,-2.179 -6.729,-3.709 v -0.078 h -0.05 c 0.016,0.026 0.034,0.052 0.05,0.078 v 3.179 h -7.465 c 0.097,-2.105 0,-22.459 0,-22.459 h 7.465 v 12.543 c 0,0.672 0.048,1.341 0.245,1.821 0.541,1.342 1.769,2.731 3.831,2.731 2.701,0 3.781,-2.06 3.781,-5.078 v -12.017 h 7.465 v 12.878 C 8.593,-3.211 4.911,0 0,0" /></g><g
           transform="translate(19.5024,19.2021)"
           id="g30"><path
             id="path32"
             style="fill:#ffffff;fill-opacity:1;fill-rule:nonzero;stroke:none"
             d="M 0,0 V 0.078 C -0.016,0.052 -0.034,0.026 -0.05,0 Z" /></g></g></g></g></svg>