<svg xmlns="http://www.w3.org/2000/svg" xmlns:dc="http://purl.org/dc/elements/1.1/" xmlns:cc="http://creativecommons.org/ns#" xmlns:rdf="http://www.w3.org/1999/02/22-rdf-syntax-ns#" xmlns:svg="http://www.w3.org/2000/svg"><defs><clipPath id="clipPath18" clipPathUnits="userSpaceOnUse"><path id="path16" d="M 0,48.309 H 22.448 V 0 H 0 Z"/></clipPath><clipPath id="clipPath18" clipPathUnits="userSpaceOnUse"><path id="path16" d="M 0,33.287 H 34.824 V 0 H 0 Z"/></clipPath><clipPath id="clipPath18" clipPathUnits="userSpaceOnUse"><path id="path16" d="M 0,49.77 H 49.572 V 0 H 0 Z"/></clipPath><clipPath id="clipPath18" clipPathUnits="userSpaceOnUse"><path id="path16" d="M 0,40.036 H 49.263 V 0 H 0 Z"/></clipPath><clipPath id="clipPath18" clipPathUnits="userSpaceOnUse"><path id="path16" d="M 0,47.974 H 49.047 V 0 H 0 Z"/></clipPath></defs><symbol id="icon-fb" viewBox="0 0 29.930399 64.411995"><metadata id="metadata8"><rdf:RDF><cc:Work rdf:about=""><dc:format>image/svg+xml</dc:format><dc:type rdf:resource="http://purl.org/dc/dcmitype/StillImage"/></cc:Work></rdf:RDF></metadata><g transform="matrix(1.3333333,0,0,-1.3333333,-2.6666666e-4,64.411998)" id="g10"><g id="g12"><g clip-path="url(#clipPath18)" id="g14"><g transform="translate(22.4482,32.666)" id="g20"><path id="path22" style="fill:#ffffff;fill-opacity:1;fill-rule:nonzero;stroke:none" d="m 0,0 h -7.645 v 5.014 c 0,1.882 1.248,2.322 2.126,2.322 h 5.395 v 8.277 l -7.43,0.03 c -8.248,0 -10.125,-6.174 -10.125,-10.125 V 0 h -4.769 v -8.529 h 4.769 v -24.137 h 10.034 v 24.137 h 6.769 z"/></g></g></g></g></symbol><symbol id="icon-in" viewBox="0 0 46.431999 44.382133"><metadata id="metadata8"><rdf:RDF><cc:Work rdf:about=""><dc:format>image/svg+xml</dc:format><dc:type rdf:resource="http://purl.org/dc/dcmitype/StillImage"/></cc:Work></rdf:RDF></metadata><g transform="matrix(1.3333333,0,0,-1.3333333,0,44.382132)" id="g10"><g id="g12"><g clip-path="url(#clipPath18)" id="g14"><g transform="translate(4.2227,33.2866)" id="g20"><path id="path22" style="fill:#ffffff;fill-opacity:1;fill-rule:nonzero;stroke:none" d="m 0,0 c -2.552,0 -4.223,-1.677 -4.223,-3.88 0,-2.155 1.62,-3.88 4.124,-3.88 h 0.05 c 2.603,0 4.224,1.725 4.224,3.88 C 4.125,-1.677 2.554,0 0,0"/></g><path id="path24" style="fill:#ffffff;fill-opacity:1;fill-rule:nonzero;stroke:none" d="M 0.44,0 H 7.905 V 22.459 H 0.44 Z"/><g transform="translate(26.2314,22.9888)" id="g26"><path id="path28" style="fill:#ffffff;fill-opacity:1;fill-rule:nonzero;stroke:none" d="m 0,0 c -3.963,0 -5.737,-2.179 -6.729,-3.709 v -0.078 h -0.05 c 0.016,0.026 0.034,0.052 0.05,0.078 v 3.179 h -7.465 c 0.097,-2.105 0,-22.459 0,-22.459 h 7.465 v 12.543 c 0,0.672 0.048,1.341 0.245,1.821 0.541,1.342 1.769,2.731 3.831,2.731 2.701,0 3.781,-2.06 3.781,-5.078 v -12.017 h 7.465 v 12.878 C 8.593,-3.211 4.911,0 0,0"/></g><g transform="translate(19.5024,19.2021)" id="g30"><path id="path32" style="fill:#ffffff;fill-opacity:1;fill-rule:nonzero;stroke:none" d="M 0,0 V 0.078 C -0.016,0.052 -0.034,0.026 -0.05,0 Z"/></g></g></g></g></symbol><symbol id="icon-rss" viewBox="0 0 66.096397 66.359329"><metadata id="metadata8"><rdf:RDF><cc:Work rdf:about=""><dc:format>image/svg+xml</dc:format><dc:type rdf:resource="http://purl.org/dc/dcmitype/StillImage"/></cc:Work></rdf:RDF></metadata><g transform="matrix(1.3333333,0,0,-1.3333333,0,66.359333)" id="g10"><g id="g12"><g clip-path="url(#clipPath18)" id="g14"><g transform="translate(13.2139,6.6641)" id="g20"><path id="path22" style="fill:#ffffff;fill-opacity:1;fill-rule:nonzero;stroke:none" d="m 0,0 c 0,-3.648 -2.959,-6.607 -6.607,-6.607 -3.649,0 -6.607,2.959 -6.607,6.607 0,3.65 2.958,6.607 6.607,6.607 C -2.959,6.607 0,3.65 0,0 m -13.191,33.566 c 22.061,0 40.01,-18.046 40.01,-40.23 h 9.539 c 0,27.445 -22.228,49.769 -49.549,49.769 z m -0.015,-16.91 c 6.19,0 12.009,-2.418 16.382,-6.816 C 7.557,5.441 9.97,-0.416 9.97,-6.652 h 9.538 c 0,18.113 -14.676,32.847 -32.714,32.847 z"/></g></g></g></g></symbol><symbol id="icon-twit" viewBox="0 0 65.684265 53.380798"><metadata id="metadata8"><rdf:RDF><cc:Work rdf:about=""><dc:format>image/svg+xml</dc:format><dc:type rdf:resource="http://purl.org/dc/dcmitype/StillImage"/></cc:Work></rdf:RDF></metadata><g transform="matrix(1.3333333,0,0,-1.3333333,0,53.3808)" id="g10"><g id="g12"><g clip-path="url(#clipPath18)" id="g14"><g transform="translate(49.2632,35.2969)" id="g20"><path id="path22" style="fill:#ffffff;fill-opacity:1;fill-rule:nonzero;stroke:none" d="m 0,0 c -1.812,-0.805 -3.76,-1.348 -5.805,-1.591 2.087,1.25 3.689,3.23 4.444,5.591 -1.953,-1.158 -4.115,-2 -6.418,-2.453 -1.843,1.964 -4.47,3.192 -7.377,3.192 -5.581,0 -10.107,-4.526 -10.107,-10.107 0,-0.792 0.09,-1.563 0.262,-2.303 -8.4,0.421 -15.848,4.444 -20.832,10.56 -0.87,-1.493 -1.369,-3.228 -1.369,-5.081 0,-3.507 1.785,-6.6 4.496,-8.413 -1.656,0.053 -3.215,0.507 -4.577,1.265 -10e-4,-0.042 -10e-4,-0.085 -10e-4,-0.128 0,-4.896 3.484,-8.981 8.108,-9.91 -0.848,-0.231 -1.741,-0.355 -2.663,-0.355 -0.652,0 -1.285,0.063 -1.902,0.182 1.286,-4.015 5.019,-6.938 9.441,-7.019 -3.459,-2.711 -7.817,-4.327 -12.553,-4.327 -0.815,0 -1.619,0.048 -2.41,0.141 4.473,-2.868 9.785,-4.541 15.493,-4.541 18.591,0 28.756,15.401 28.756,28.757 0,0.437 -0.009,0.874 -0.028,1.308 C -3.068,-3.808 -1.354,-2.027 0,0"/></g></g></g></g></symbol><symbol id="icon-youtube" viewBox="0 0 65.395866 63.964802"><metadata id="metadata8"><rdf:RDF><cc:Work rdf:about=""><dc:format>image/svg+xml</dc:format><dc:type rdf:resource="http://purl.org/dc/dcmitype/StillImage"/></cc:Work></rdf:RDF></metadata><g transform="matrix(1.3333333,0,0,-1.3333333,0,63.9648)" id="g10"><g id="g12"><g clip-path="url(#clipPath18)" id="g14"><g transform="translate(41.2822,11.0454)" id="g20"><path id="path22" style="fill:#ffffff;fill-opacity:1;fill-rule:nonzero;stroke:none" d="m 0,0 h -4.746 v -2.338 c 0,-0.654 0.079,-1.107 0.242,-1.361 0.165,-0.254 0.445,-0.377 0.841,-0.377 0.413,0 0.698,0.107 0.863,0.321 0.161,0.216 0.247,0.686 0.247,1.417 v 0.565 H 0 V -2.41 c 0,-1.273 -0.309,-2.231 -0.937,-2.879 -0.617,-0.639 -1.546,-0.959 -2.783,-0.959 -1.112,0 -1.989,0.34 -2.626,1.023 -0.635,0.677 -0.959,1.618 -0.959,2.815 v 5.576 c 0,1.073 0.353,1.956 1.056,2.633 0.702,0.677 1.603,1.014 2.716,1.014 1.136,0 2.009,-0.313 2.619,-0.94 C -0.305,5.244 0,4.343 0,3.166 Z m -8.604,-3.345 c 0,-0.877 -0.195,-1.551 -0.584,-2.022 -0.386,-0.469 -0.953,-0.7 -1.686,-0.7 -0.488,0 -0.921,0.087 -1.299,0.269 -0.379,0.179 -0.736,0.458 -1.06,0.841 v -0.951 h -2.509 v 16.826 h 2.509 V 5.499 c 0.336,0.376 0.692,0.666 1.062,0.861 0.38,0.2 0.761,0.296 1.147,0.296 0.785,0 1.383,-0.262 1.797,-0.791 0.416,-0.53 0.623,-1.304 0.623,-2.321 z m -9.003,-2.563 h -2.481 v 1.36 c -0.461,-0.503 -0.935,-0.887 -1.433,-1.146 -0.495,-0.27 -0.974,-0.397 -1.441,-0.397 -0.575,0 -1.003,0.183 -1.296,0.555 -0.288,0.371 -0.435,0.921 -0.435,1.663 V 6.506 h 2.48 v -9.524 c 0,-0.293 0.054,-0.505 0.153,-0.635 0.108,-0.136 0.279,-0.198 0.511,-0.198 0.179,0 0.412,0.086 0.692,0.26 0.281,0.175 0.536,0.397 0.769,0.668 v 9.429 h 2.481 z m -8.176,14.379 h -2.894 V -5.908 h -2.796 V 8.471 h -2.892 v 2.447 h 8.582 z m 24.589,5.607 h -31.129 c -4.948,0 -8.959,-4.015 -8.959,-8.962 v -7.201 c 0,-4.947 4.011,-8.96 8.959,-8.96 h 31.129 c 4.947,0 8.959,4.013 8.959,8.96 v 7.201 c 0,4.947 -4.012,8.962 -8.959,8.962"/></g><g transform="translate(37.6426,15.6875)" id="g24"><path id="path26" style="fill:#ffffff;fill-opacity:1;fill-rule:nonzero;stroke:none" d="M 0,0 C -0.396,0 -0.678,-0.112 -0.85,-0.343 -1.024,-0.561 -1.106,-0.935 -1.106,-1.456 V -2.71 h 2.193 v 1.254 c 0,0.521 -0.089,0.895 -0.262,1.113 C 0.657,-0.112 0.378,0 0,0"/></g><g transform="translate(29.0869,15.7295)" id="g28"><path id="path30" style="fill:#ffffff;fill-opacity:1;fill-rule:nonzero;stroke:none" d="m 0,0 c -0.177,0 -0.354,-0.038 -0.526,-0.12 -0.173,-0.079 -0.343,-0.21 -0.512,-0.379 v -7.734 c 0.2,-0.2 0.397,-0.354 0.588,-0.442 0.192,-0.085 0.388,-0.133 0.599,-0.133 0.305,0 0.528,0.088 0.67,0.266 0.141,0.175 0.214,0.457 0.214,0.854 v 6.412 c 0,0.421 -0.085,0.737 -0.26,0.954 C 0.592,-0.108 0.334,0 0,0"/></g><g transform="translate(13.0352,29.4355)" id="g32"><path id="path34" style="fill:#ffffff;fill-opacity:1;fill-rule:nonzero;stroke:none" d="m 0,0 h 3.145 v 7.69 l 3.66,10.848 H 3.609 L 1.663,11.128 H 1.465 l -2.043,7.41 H -3.745 L 0,7.344 Z"/></g><g transform="translate(22.9424,40.0879)" id="g36"><path id="path38" style="fill:#ffffff;fill-opacity:1;fill-rule:nonzero;stroke:none" d="M 0,0 C 0,0.297 0.106,0.537 0.316,0.725 0.533,0.909 0.809,0.999 1.149,0.999 1.52,0.999 1.817,0.909 2.046,0.725 2.272,0.537 2.387,0.297 2.387,0 v -7.451 c 0,-0.365 -0.113,-0.654 -0.336,-0.864 -0.223,-0.21 -0.524,-0.313 -0.902,-0.313 -0.369,0 -0.654,0.099 -0.852,0.309 C 0.1,-8.113 0,-7.826 0,-7.451 Z m 1.158,-10.998 c 1.27,0 2.266,0.333 2.992,0.999 0.721,0.669 1.082,1.582 1.082,2.752 v 7.065 c 0,1.04 -0.369,1.898 -1.103,2.559 C 3.389,3.036 2.441,3.368 1.284,3.368 0.016,3.368 -0.997,3.054 -1.748,2.427 -2.499,1.799 -2.875,0.959 -2.875,-0.104 v -7.088 c 0,-1.163 0.367,-2.084 1.099,-2.773 0.733,-0.687 1.713,-1.033 2.934,-1.033"/></g><g transform="translate(32.3916,29.2363)" id="g40"><path id="path42" style="fill:#ffffff;fill-opacity:1;fill-rule:nonzero;stroke:none" d="M 0,0 C 0.524,0 1.063,0.149 1.619,0.437 2.18,0.729 2.717,1.156 3.228,1.713 V 0.199 H 6.021 V 13.874 H 3.228 V 3.493 C 2.968,3.196 2.68,2.952 2.368,2.758 2.052,2.566 1.792,2.471 1.587,2.471 1.325,2.471 1.133,2.542 1.02,2.69 0.903,2.834 0.839,3.067 0.839,3.389 V 13.874 H -1.95 V 2.445 c 0,-0.816 0.164,-1.424 0.489,-1.828 C -1.132,0.207 -0.648,0 0,0"/></g></g></g></g></symbol></svg>