<?xml version="1.0" encoding="UTF-8" standalone="no"?>
<svg
  xmlns:dc="http://purl.org/dc/elements/1.1/"
  xmlns:cc="http://creativecommons.org/ns#"
  xmlns:rdf="http://www.w3.org/1999/02/22-rdf-syntax-ns#"
  xmlns:svg="http://www.w3.org/2000/svg"
  xmlns="http://www.w3.org/2000/svg"
  viewBox="0 0 4132.3764 1677.7805"
  height="143"
  width="353"
  xml:space="preserve"
  id="svg2"
  version="1.1">
  <metadata id="metadata8">
    <rdf:RDF>
      <cc:Work rdf:about="">
        <dc:format>image/svg+xml</dc:format><dc:type rdf:resource="http://purl.org/dc/dcmitype/StillImage"/></cc:Work>
    </rdf:RDF>
  </metadata>
  <defs id="defs6">
    <clipPath id="clipPath50" clipPathUnits="userSpaceOnUse"><path id="path48" d="M 0,1258.335 H 3099.282 V 0 H 0 Z"/></clipPath>
  </defs>
  <g transform="matrix(1.3333333,0,0,-1.3333333,1.3333333e-4,1677.78)" id="g10">
    <g transform="translate(2454.1523,1258.335)" id="g12"><path id="path14" style="fill:#232d37;fill-opacity:1;fill-rule:nonzero;stroke:none" d="M 0,0 117.055,-271.354 0,-542.707 645.13,-271.354 Z"/></g>
    <g transform="translate(2281.2317,1258.335)" id="g16"><path id="path18" style="fill:#59cb00;fill-opacity:1;fill-rule:nonzero;stroke:none" d="M -645.13,-271.354 0,-542.707 -117.055,-271.354 0,0 Z"/></g>
    <g transform="translate(818.0505,1258.335)" id="g20"><path id="path22" style="fill:#232d37;fill-opacity:1;fill-rule:nonzero;stroke:none" d="M 0,0 117.055,-271.354 0,-542.707 645.13,-271.354 Z"/></g>
    <g transform="translate(0,1258.335)" id="g24"><path id="path26" style="fill:#232d37;fill-opacity:1;fill-rule:nonzero;stroke:none" d="M 0,0 117.055,-271.354 0,-542.707 645.13,-271.354 Z"/></g>
    <g transform="translate(2571.2073,271.3536)" id="g28"><path id="path30" style="fill:#232d37;fill-opacity:1;fill-rule:nonzero;stroke:none" d="M 0,0 -117.055,-271.354 528.075,0 -117.055,271.354 Z"/></g>
    <g transform="translate(1753.1567,271.3536)" id="g32"><path id="path34" style="fill:#232d37;fill-opacity:1;fill-rule:nonzero;stroke:none" d="M 0,0 -117.055,-271.354 528.075,0 -117.055,271.354 Z"/></g>
    <g transform="translate(935.1054,271.3536)" id="g36"><path id="path38" style="fill:#232d37;fill-opacity:1;fill-rule:nonzero;stroke:none" d="M 0,0 -117.055,-271.354 528.075,0 -117.055,271.354 Z"/></g>
    <g transform="translate(117.0549,271.3536)" id="g40"><path id="path42" style="fill:#232d37;fill-opacity:1;fill-rule:nonzero;stroke:none" d="M 0,0 -117.055,-271.354 528.075,0 -117.055,271.354 Z"/></g>
    <g id="g44">
      <g clip-path="url(#clipPath50)" id="g46">
        <g transform="translate(1098.4115,583.5837)" id="g52"><path
          id="path54"
          style="fill:#232d37;fill-opacity:1;fill-rule:nonzero;stroke:none"
          d="m 0,0 c 0,63.178 51.216,114.394 114.394,114.394 63.178,0 114.394,-51.216 114.394,-114.394 0,-63.179 -51.216,-114.395 -114.394,-114.395 C 51.216,-114.395 0,-63.179 0,0"/></g>
      </g>
    </g>
  </g>
</svg>
