<?xml version="1.0" encoding="UTF-8" standalone="no"?>
<svg
   xmlns:dc="http://purl.org/dc/elements/1.1/"
   xmlns:cc="http://creativecommons.org/ns#"
   xmlns:rdf="http://www.w3.org/1999/02/22-rdf-syntax-ns#"
   xmlns:svg="http://www.w3.org/2000/svg"
   xmlns="http://www.w3.org/2000/svg"
   viewBox="0 0 65.395866 63.964802"
   height="63.964802"
   width="65.395866"
   xml:space="preserve"
   id="svg2"
   version="1.1"><metadata
     id="metadata8"><rdf:RDF><cc:Work
         rdf:about=""><dc:format>image/svg+xml</dc:format><dc:type
           rdf:resource="http://purl.org/dc/dcmitype/StillImage" /></cc:Work></rdf:RDF></metadata><defs
     id="defs6"><clipPath
       id="clipPath18"
       clipPathUnits="userSpaceOnUse"><path
         id="path16"
         d="M 0,47.974 H 49.047 V 0 H 0 Z" /></clipPath></defs><g
     transform="matrix(1.3333333,0,0,-1.3333333,0,63.9648)"
     id="g10"><g
       id="g12"><g
         clip-path="url(#clipPath18)"
         id="g14"><g
           transform="translate(41.2822,11.0454)"
           id="g20"><path
             id="path22"
             style="fill:#ffffff;fill-opacity:1;fill-rule:nonzero;stroke:none"
             d="m 0,0 h -4.746 v -2.338 c 0,-0.654 0.079,-1.107 0.242,-1.361 0.165,-0.254 0.445,-0.377 0.841,-0.377 0.413,0 0.698,0.107 0.863,0.321 0.161,0.216 0.247,0.686 0.247,1.417 v 0.565 H 0 V -2.41 c 0,-1.273 -0.309,-2.231 -0.937,-2.879 -0.617,-0.639 -1.546,-0.959 -2.783,-0.959 -1.112,0 -1.989,0.34 -2.626,1.023 -0.635,0.677 -0.959,1.618 -0.959,2.815 v 5.576 c 0,1.073 0.353,1.956 1.056,2.633 0.702,0.677 1.603,1.014 2.716,1.014 1.136,0 2.009,-0.313 2.619,-0.94 C -0.305,5.244 0,4.343 0,3.166 Z m -8.604,-3.345 c 0,-0.877 -0.195,-1.551 -0.584,-2.022 -0.386,-0.469 -0.953,-0.7 -1.686,-0.7 -0.488,0 -0.921,0.087 -1.299,0.269 -0.379,0.179 -0.736,0.458 -1.06,0.841 v -0.951 h -2.509 v 16.826 h 2.509 V 5.499 c 0.336,0.376 0.692,0.666 1.062,0.861 0.38,0.2 0.761,0.296 1.147,0.296 0.785,0 1.383,-0.262 1.797,-0.791 0.416,-0.53 0.623,-1.304 0.623,-2.321 z m -9.003,-2.563 h -2.481 v 1.36 c -0.461,-0.503 -0.935,-0.887 -1.433,-1.146 -0.495,-0.27 -0.974,-0.397 -1.441,-0.397 -0.575,0 -1.003,0.183 -1.296,0.555 -0.288,0.371 -0.435,0.921 -0.435,1.663 V 6.506 h 2.48 v -9.524 c 0,-0.293 0.054,-0.505 0.153,-0.635 0.108,-0.136 0.279,-0.198 0.511,-0.198 0.179,0 0.412,0.086 0.692,0.26 0.281,0.175 0.536,0.397 0.769,0.668 v 9.429 h 2.481 z m -8.176,14.379 h -2.894 V -5.908 h -2.796 V 8.471 h -2.892 v 2.447 h 8.582 z m 24.589,5.607 h -31.129 c -4.948,0 -8.959,-4.015 -8.959,-8.962 v -7.201 c 0,-4.947 4.011,-8.96 8.959,-8.96 h 31.129 c 4.947,0 8.959,4.013 8.959,8.96 v 7.201 c 0,4.947 -4.012,8.962 -8.959,8.962" /></g><g
           transform="translate(37.6426,15.6875)"
           id="g24"><path
             id="path26"
             style="fill:#ffffff;fill-opacity:1;fill-rule:nonzero;stroke:none"
             d="M 0,0 C -0.396,0 -0.678,-0.112 -0.85,-0.343 -1.024,-0.561 -1.106,-0.935 -1.106,-1.456 V -2.71 h 2.193 v 1.254 c 0,0.521 -0.089,0.895 -0.262,1.113 C 0.657,-0.112 0.378,0 0,0" /></g><g
           transform="translate(29.0869,15.7295)"
           id="g28"><path
             id="path30"
             style="fill:#ffffff;fill-opacity:1;fill-rule:nonzero;stroke:none"
             d="m 0,0 c -0.177,0 -0.354,-0.038 -0.526,-0.12 -0.173,-0.079 -0.343,-0.21 -0.512,-0.379 v -7.734 c 0.2,-0.2 0.397,-0.354 0.588,-0.442 0.192,-0.085 0.388,-0.133 0.599,-0.133 0.305,0 0.528,0.088 0.67,0.266 0.141,0.175 0.214,0.457 0.214,0.854 v 6.412 c 0,0.421 -0.085,0.737 -0.26,0.954 C 0.592,-0.108 0.334,0 0,0" /></g><g
           transform="translate(13.0352,29.4355)"
           id="g32"><path
             id="path34"
             style="fill:#ffffff;fill-opacity:1;fill-rule:nonzero;stroke:none"
             d="m 0,0 h 3.145 v 7.69 l 3.66,10.848 H 3.609 L 1.663,11.128 H 1.465 l -2.043,7.41 H -3.745 L 0,7.344 Z" /></g><g
           transform="translate(22.9424,40.0879)"
           id="g36"><path
             id="path38"
             style="fill:#ffffff;fill-opacity:1;fill-rule:nonzero;stroke:none"
             d="M 0,0 C 0,0.297 0.106,0.537 0.316,0.725 0.533,0.909 0.809,0.999 1.149,0.999 1.52,0.999 1.817,0.909 2.046,0.725 2.272,0.537 2.387,0.297 2.387,0 v -7.451 c 0,-0.365 -0.113,-0.654 -0.336,-0.864 -0.223,-0.21 -0.524,-0.313 -0.902,-0.313 -0.369,0 -0.654,0.099 -0.852,0.309 C 0.1,-8.113 0,-7.826 0,-7.451 Z m 1.158,-10.998 c 1.27,0 2.266,0.333 2.992,0.999 0.721,0.669 1.082,1.582 1.082,2.752 v 7.065 c 0,1.04 -0.369,1.898 -1.103,2.559 C 3.389,3.036 2.441,3.368 1.284,3.368 0.016,3.368 -0.997,3.054 -1.748,2.427 -2.499,1.799 -2.875,0.959 -2.875,-0.104 v -7.088 c 0,-1.163 0.367,-2.084 1.099,-2.773 0.733,-0.687 1.713,-1.033 2.934,-1.033" /></g><g
           transform="translate(32.3916,29.2363)"
           id="g40"><path
             id="path42"
             style="fill:#ffffff;fill-opacity:1;fill-rule:nonzero;stroke:none"
             d="M 0,0 C 0.524,0 1.063,0.149 1.619,0.437 2.18,0.729 2.717,1.156 3.228,1.713 V 0.199 H 6.021 V 13.874 H 3.228 V 3.493 C 2.968,3.196 2.68,2.952 2.368,2.758 2.052,2.566 1.792,2.471 1.587,2.471 1.325,2.471 1.133,2.542 1.02,2.69 0.903,2.834 0.839,3.067 0.839,3.389 V 13.874 H -1.95 V 2.445 c 0,-0.816 0.164,-1.424 0.489,-1.828 C -1.132,0.207 -0.648,0 0,0" /></g></g></g></g></svg>